<?xml version="1.0" encoding="UTF-8"?>
<svg id="_Шар_2" data-name="Шар 2" xmlns="http://www.w3.org/2000/svg" viewBox="0 0 242.51 315.96">
  <defs>
    <style>
      .cls-1 {
        fill: #5f7d4a;
        stroke-width: 0px;
      }
    </style>
  </defs>
  <g id="_Шар_2-2" data-name="Шар 2">
    <path class="cls-1" d="m240.23,210.8c-1.5,3.88-3.82,7.75-7.17,11.29h-.03c-2.77,2.98-6.25,5.72-10.58,8.07h-.03c-1.71.92-3.56,1.79-5.54,2.58-13.87,5.51-29.8-2.27-36.11-8.78-2.9,2.16-5.62,4.64-8.12,7.36-.24.24-.45.5-.66.77-1.95,2.16-3.72,4.46-5.3,6.83-5.46,8.23-8.89,17.65-10.37,27.83v.03c-.61,3.96-.9,8.02-.9,12.19,0,1.06.03,2.11.08,3.17v.29h25.16v33.55h-83.51v-33.55h19.97c15.27-37.22-1.08-51.83-26.3-57.29-2.88,1.32-7.12,2-11.39,3.82-9.5,4.01-13.93,10.34-37.24,10.34-8.84,0-20.02-7.1-28.67-15.69-3.69-3.67-6.94-7.62-9.34-11.39-2.61-4.19-4.19-8.18-4.19-11.34,0-12.69,22.45-10.89,49.64-11,14.61-.05,31.1,11.76,39.35,21.18,12.29,4.85,23.9,12,34.18,21.47,3.67,3.38,7.07,6.96,10.18,10.68,1.35-31.6-10.66-63.43-35.63-86.43-4.35-4.01-8.97-7.62-13.74-10.79-2.82.58-7.1.61-12.66,1.11-7.04.63-16.67,3.72-26.16,3.72-19.33,0-33.95-11.47-38.8-17.96-1.13-1.53-1.74-2.77-1.74-3.53,0-.11,0-.24.05-.34.98-6.12,27.88-16.38,43.49-16.38,20.02,0,34.47,15.32,38.59,24.95,4.8,2.19,9.44,4.75,13.95,7.65-6.28-15.56-9.34-31.86-9.05-47.79-7.81-5.93-19.25-29.25-19.25-46.63S89.26,0,98.2,0c3.96,0,12.98,14.98,18.36,30.49.37,1.05.71,2.08,1.06,3.14,2,6.36,3.3,12.63,3.3,17.86,0,20.57-9.97,39.12-19.65,45.21.9,19.36,6.62,39.01,16.96,57-2.88-21.89.37-43.84,9.97-63.09-2.87-6.96-3.53-22.13,2.53-32.97,9.57-17.09,33.84-25.93,38.38-22.87,1.93,1.32,3.01,5.57,3.35,11.13.05,1.11.11,2.27.11,3.48.08,11.21-2.37,25.72-6.78,32.55-6.38,9.92-21.92,13.37-30.36,13.06-10.29,25.19-10.39,54.18-.84,81.37,1.21,3.48,2.58,6.91,4.09,10.31,1.05,1.98,2.03,3.98,2.9,6.01,1.61,3.51,3.01,7.07,4.17,10.71,1.5,4.46,2.66,8.97,3.56,13.56.55-2.77,1.21-5.51,1.98-8.2.11-.4.24-.79.34-1.19,1.19-3.98,2.61-7.89,4.25-11.71,3.75-8.62,8.7-16.78,14.9-24.24-.34-8.02,2.85-21.81,14.48-34.68,7.1-7.89,18.83-13,28.41-14.56,11.39-1.87,20.55-4.88,23.08-3.35,1.13.69,2.03,3.53,2.35,7.65.21,2.48.21,5.46-.03,8.7-.84,11.03-4.67,25.24-13.77,35.34-14.96,16.59-42.02,13.98-50.88,8.7-4.4,6.99-8.07,14.22-10.97,21.63-1.5,3.77-2.82,7.6-3.93,11.45-.5,1.71-.95,3.43-1.37,5.17-.95,3.8-1.69,7.62-2.24,11.42-.21,1.4-.4,2.82-.53,4.22.69-.9,1.42-1.77,2.14-2.61h.03c.77-.92,1.56-1.79,2.37-2.69,1.27-1.37,2.53-2.69,3.85-3.98,2.14-2.06,4.33-4.01,6.59-5.86,2.95-2.4,5.99-4.62,9.15-6.65.18-.45.4-.87.61-1.29,2.98-5.35,8.97-8.41,16.64-12.19,7.33-3.61,13.16-3.69,26.53-4.4,8.28-.45,18.15-3.48,18.81.13.08.37.13.77.18,1.16.61,4.59.16,10.23-2.03,15.88Z"/>
  </g>
</svg>