<?xml version="1.0" encoding="UTF-8"?>
<svg id="_Шар_2" data-name="Шар 2" xmlns="http://www.w3.org/2000/svg" viewBox="0 0 219.95 193.04">
  <defs>
    <style>
      .cls-1 {
        fill: #7a3021;
      }

      .cls-1, .cls-2 {
        stroke-width: 0px;
      }

      .cls-2 {
        fill: #ab4228;
      }
    </style>
  </defs>
  <g id="_Шар_1-2" data-name="Шар 1">
    <rect class="cls-2" y="0" width="219.95" height="48.19" rx="8.5" ry="8.5"/>
    <polygon class="cls-2" points="165.85 47.24 139.78 180.5 40.6 180.5 14.57 47.24 165.85 47.24"/>
    <path class="cls-1" d="m219.95,9.13v30.57c0,4.69-3.81,8.49-8.5,8.49H8.88v-6.59c0-4.69,3.81-8.5,8.51-8.5h178.56c3.81,0,6.89-3.08,6.89-6.88h0c0-4.72,1.92-8.99,5.01-12.08,3.1-3.09,7.37-5,12.1-5Z"/>
    <path class="cls-1" d="m205.38,47.24l-26.06,133.26-1.1,5.62c-.79,4.02-4.31,6.92-8.41,6.92H50.12c-4.11,0-7.64-2.91-8.43-6.94l-1.09-5.6h92.17c4.07,0,7.58-2.88,8.36-6.88l24.72-126.38h39.53Z"/>
  </g>
</svg>