<?xml version="1.0" encoding="UTF-8"?>
<svg id="_Шар_2" data-name="Шар 2" xmlns="http://www.w3.org/2000/svg" viewBox="0 0 85.99 140.9">
  <defs>
    <style>
      .cls-1 {
        fill: #5f7d4a;
        stroke: #193319;
        stroke-miterlimit: 10;
        stroke-width: .25px;
      }
    </style>
  </defs>
  <g id="_Шар_2-2" data-name="Шар 2">
    <path class="cls-1" d="m51.72,59.97c-.51.47-1,1.16-1.48,2.04,0,0-.01.03-.02.04-1.57,1.91-3.29,3.26-5.06,3.88-.41.15-.83.26-1.25.31-.32.06-.63.09-.95.09-.68,0-1.39-.13-2.11-.41-.26-.1-.53-.22-.8-.35-1.63-.85-3.3-2.41-4.81-4.73-.2-.38-.41-.71-.62-1.01-3.1-5.3-5.45-14-5.45-26.6,0-.1,0-.19.01-.29.01-2.39.22-4.73.58-6.99C32.08,11.35,40.65.12,43.5.12c1.39,0,6.34,8.67,9.93,20.24,1.17,3.79,2.2,7.88,2.9,12.09.11.62.21,1.25.3,1.88,1.42,9.86-1.01,19.55-4.91,25.64Z"/>
    <path class="cls-1" d="m35.24,60.84c-.22-.32-.42-.66-.62-1.01.21.3.42.63.62,1.01Z"/>
    <path class="cls-1" d="m51.72,59.97c-.47.74-.96,1.42-1.48,2.04.48-.88.97-1.57,1.48-2.04Z"/>
    <path class="cls-1" d="m84.01,24.22c.17.78-10.25-4.48-11.74,15.66-.58,7.99-3.03,13.34-10.59,19.19-.48.37-.94.74-1.38,1.09-1,.81-1.89,1.59-2.71,2.33-.2.17-.39.35-.58.53-4.07,3.75-5.97,6.43-7.39,7.42h-.01c-.39.3-.75.44-1.11.44s-.74-.13-1.09-.4c-.93-.69-1.77-2.27-2.25-4.55,1.77-.62,3.49-1.97,5.06-3.88,0-.01.02-.03.02-.04.52-.62,1.01-1.3,1.48-2.04,3.9-6.09,6.33-15.78,4.91-25.64-.09-.63-.19-1.26-.3-1.88.23-.3.47-.6.71-.9.02-.02.04-.05.06-.07,10.72-13.22,26.24-10.49,26.91-7.26Z"/>
    <path class="cls-1" d="m51.72,59.97c-.47.74-.96,1.42-1.48,2.04.48-.88.97-1.57,1.48-2.04Z"/>
    <path class="cls-1" d="m40.05,65.58c-.39,2.02-1.04,3.53-1.79,4.41-.51.59-1.07.91-1.62.9-.22,0-.44-.05-.66-.16-1.5-.68-3.34-3.55-7.9-7.74-.38-.36-.78-.72-1.2-1.09-.65-.57-1.36-1.16-2.12-1.78-.42-.34-.85-.69-1.31-1.04-7.55-5.85-10-11.2-10.59-19.19C11.38,19.74.96,25.01,1.12,24.22c.67-3.24,16.26-5.97,26.97,7.33.04.05.09.11.12.16.34.41.66.82.97,1.23-.01.1-.01.19-.01.29,0,12.6,2.35,21.3,5.45,26.6.2.35.4.69.62,1.01,1.51,2.32,3.18,3.88,4.81,4.73Z"/>
    <path class="cls-1" d="m35.24,60.84c-.22-.32-.42-.66-.62-1.01.21.3.42.63.62,1.01Z"/>
    <path class="cls-1" d="m34.6,94.65c-.23.24-.45.44-.66.61-.17.14-.3.21-.41.23-.29.04-.47-.33-.96-1.05-.39-.57-.99-1.36-2.02-2.33-.38-.37-.81-.76-1.32-1.17-1.32-1.07-3.11-2.3-5.58-3.66-.03-.02-.05-.03-.08-.05-.61-.33-1.25-.67-1.94-1.01-.67-.34-1.38-.69-2.13-1.04-4.92-2.29-7.39-4.21-9.15-6.91-1.26-1.93-2.15-4.26-3.3-7.39-3.11-8.48-5.6-18.55-5.29-18.88,3.34.03,11.17-.05,22.83,10.71h0c.36.34.72.68,1.09,1.03.08.08.16.15.23.23.47.46.91.92,1.35,1.37,15.21,15.92,10.59,25.95,7.34,29.31Z"/>
    <path class="cls-1" d="m30.05,101.15c-.99.05.11-.55-4.48-1.1-.37-.04-.77-.08-1.23-.12h-.01c-.28-.03-.58-.06-.9-.09-.06,0-.11-.01-.17-.01-.07-.01-.15-.01-.23-.02-.62-.05-1.3-.09-2.05-.14-.04,0-.09-.01-.13-.01-2.44-.19-4.98-1.54-7.19-3.54-2.82-2.56-5.11-6.17-5.98-9.82-1.25-5.27-5.18-5.47-7.3-5.47,2.93-2.18,6.16-2.91,9.97-2.55,1.76,2.7,4.23,4.62,9.15,6.91.75.35,1.46.7,2.13,1.04.69.34,1.33.68,1.94,1.01.03.02.05.03.08.05,2.47,1.36,4.26,2.59,5.58,3.66.51.41.94.8,1.32,1.17,1.03.97,1.63,1.76,2.02,2.33.33,3.71-1.09,6.63-2.52,6.7Z"/>
    <path class="cls-1" d="m85.62,80.83c-2.11,0-6.05.2-7.3,5.47-.86,3.62-3.12,7.21-5.91,9.76h-.01c-2.07,1.91-4.45,3.23-6.75,3.55h-.01c-.2.03-.41.05-.61.06-.28.02-.54.03-.8.06-.06-.01-.12,0-.18.01-.57.03-1.09.07-1.57.11-.05.01-.1.01-.15.02-.3.02-.58.05-.85.07-.3.03-.59.06-.85.09-.04.01-.09.01-.13.02-1.82.21-2.76.43-3.29.62-.83.3-.65.51-1.26.48-.19-.01-.38-.07-.56-.18-1.26-.7-2.33-3.52-1.92-6.93.5-.67,1.26-1.56,2.5-2.62.17-.16.36-.32.55-.47,1.19-.97,2.77-2.06,4.87-3.26.14-.08.28-.16.42-.24.49-.28,1.01-.56,1.56-.84.88-.46,1.84-.94,2.88-1.42,4.89-2.28,7.37-4.2,9.12-6.88,3.93-.43,7.25.28,10.25,2.52Z"/>
    <path class="cls-1" d="m84.02,107.08c-1.93,0-2.29-4.55-10.33-1.19-.73.31-1.52.68-2.38,1.12-1.68.86-2.74,1.35-3.5,1.65-.69.26-1.14.38-1.6.46-.26.05-.51.09-.8.14-.3.05-.63.12-1.05.22-.02,0-.03.01-.05.02-.47.11-1.04.27-1.77.5,0,.01-.03.01-.04.01-.17.06-.34.12-.52.18-.21.07-.41.14-.6.2-.33.12-.65.23-.95.33-.57.21-1.09.4-1.57.58-5.68,2.17-5.04,2.87-6.11,2.82-.06,0-.12-.01-.17-.03-1.6-.37-.98-5.02,2.9-9.58,1.3-1.53,2.97-3.06,5.04-4.41.04-.03.07-.05.11-.07.26-.03.55-.06.85-.09.27-.02.55-.05.85-.07.05-.01.1-.01.15-.02.48-.04,1-.08,1.57-.11.06-.01.12-.02.18-.01.26-.03.52-.04.8-.06.2-.01.41-.03.61-.06h.01c2.3-.32,4.68-1.64,6.75-3.54h.01c12.32-.54,10.95,8.87,11.61,11.01Z"/>
    <path class="cls-1" d="m33.37,112.71c-.05.85-.4,1.38-.98,1.41h-.14c-.79-.02-.63-.6-4.31-2.15h-.01c-.6-.26-1.3-.54-2.12-.84-.68-.26-1.45-.53-2.32-.83-.03-.01-.07-.02-.11-.03-.07-.03-.15-.05-.23-.08-.04-.01-.08-.03-.12-.04-.71-.24-1.29-.41-1.77-.54-.17-.05-.32-.09-.47-.12-2.47-.61-2.14.01-6.97-2.48-10.37-5.34-10.59.07-12.7.07.67-2.2-.79-12.02,12.54-10.96,2.21,2,4.75,3.35,7.19,3.54.04,0,.09.01.13.01.75.05,1.43.09,2.05.14.08.01.16.01.23.02.06,0,.11.01.17.01.32.03.62.06.9.09h.01c.37.23.72.46,1.06.7,5.81,4.11,8.13,9.55,7.97,12.08Z"/>
    <path class="cls-1" d="m33.04,125.42c-.06.5-.21.94-.42,1.3-.21.36-.13.42-.46.22-.48-.31-1.86-1.2-6.48-2.56-.79-.23-1.39-.39-1.87-.5-.03-.01-.05-.01-.07-.01-.67-.15-1.12-.22-1.56-.26-.11-.02-.22-.03-.33-.04,0-.04,0-.08,0-.11,0,.03-.02.07-.03.1-.14-.01-.27-.03-.42-.05-.27-.04-.56-.09-.92-.15-.12-.03-.26-.06-.4-.08h0c-.15-.04-.31-.07-.49-.12-.61-.14-1.37-.33-2.36-.61-5.04-1.43-7.23,2.83-9,2.83.55-1.79,1.86-10.43,12.36-10.22h.33c.35.02.7.04,1.07.07.24.02.49.05.75.08.15.02.3.04.45.06.03,0,.06.01.09.01.1.02.2.04.29.06.09.01.18.03.27.06.31.06.62.13.91.22,2.81.78,4.86,2.24,6.21,3.87,1.64,1.97,2.28,4.2,2.07,5.83Z"/>
    <path class="cls-1" d="m21.86,123.46s0,.07,0,.11c-.01,0-.01-.01-.02-.01.01-.03.02-.07.03-.1Z"/>
    <path class="cls-1" d="m55.37,126.24c-.65,2.56-1.26,5.24-1.81,8.01-.06.3-.12.6-.17.9h-1.64c.49-3.13,1.06-6.08,1.7-8.82.06.14.12.27.19.39.35.59-.08.38,1.73-.48Z"/>
    <path class="cls-1" d="m51.72,59.97c-.47.74-.96,1.42-1.48,2.04.48-.88.97-1.57,1.48-2.04Z"/>
    <path class="cls-1" d="m55.37,126.24c-.65,2.56-1.26,5.24-1.81,8.01-.06.3-.12.6-.17.9h-1.64c.49-3.13,1.06-6.08,1.7-8.82.06.14.12.27.19.39.35.59-.08.38,1.73-.48Z"/>
    <path class="cls-1" d="m35.24,60.84c-.22-.32-.42-.66-.62-1.01.21.3.42.63.62,1.01Z"/>
    <path class="cls-1" d="m35.35,135.15h-.89c-.69-3.05-1.47-5.81-2.3-8.21.33.2.25.14.46-.22.21-.36.36-.8.42-1.3.85,2.88,1.64,6.16,2.31,9.73Z"/>
    <path class="cls-1" d="m21.86,123.46s0,.07,0,.11c-.01,0-.01-.01-.02-.01.01-.03.02-.07.03-.1Z"/>
    <path class="cls-1" d="m35.35,135.15h-.89c-.69-3.05-1.47-5.81-2.3-8.21.33.2.25.14.46-.22.21-.36.36-.8.42-1.3.85,2.88,1.64,6.16,2.31,9.73Z"/>
    <path class="cls-1" d="m51.72,59.97c-.47.74-.96,1.42-1.48,2.04.48-.88.97-1.57,1.48-2.04Z"/>
    <path class="cls-1" d="m78.69,70.89c-1.16,3.15-2.05,5.49-3.32,7.42-1.75,2.68-4.23,4.6-9.12,6.88-1.04.48-2,.96-2.88,1.42-.55.28-1.07.56-1.56.84-.14.08-.28.16-.42.24-2.1,1.2-3.68,2.29-4.87,3.26-.19.15-.38.31-.55.47-1.24,1.06-2,1.95-2.5,2.62-.82,1.12-.95,1.64-1.4,1.41h-.01c-.07-.04-.15-.1-.25-.18-.32-.26-.67-.6-1.03-1.02-3.17-3.68-6.85-13.38,7.29-28.45.27-.3.55-.59.84-.89.37-.38.76-.77,1.15-1.16.15-.14.3-.28.44-.41,12.02-11.38,20.09-11.3,23.49-11.33.31.33-2.18,10.4-5.3,18.88Z"/>
    <path class="cls-1" d="m55.37,126.24c-.65,2.56-1.26,5.24-1.81,8.01-.06.3-.12.6-.17.9h-1.64c.49-3.13,1.06-6.08,1.7-8.82.06.14.12.27.19.39.35.59-.08.38,1.73-.48Z"/>
    <path class="cls-1" d="m35.24,60.84c-.22-.32-.42-.66-.62-1.01.21.3.42.63.62,1.01Z"/>
    <path class="cls-1" d="m40.36,126.14c.03,1.27.05,2.56.05,3.86,0,1.75-.03,3.47-.09,5.16h-3.85c-.49-9.65-2.02-17.32-4.22-21.04h.14c.58-.03.93-.56.98-1.41,1.91,4.08,3.43,10.85,4.27,19.11.26-1.97.48-4.03.67-6.2t0-.02c-.27-13.03-2.13-24.17-4.78-30.1.11-.02.24-.09.41-.23.21-.17.43-.37.66-.61,1.89,3.09,3.47,8.68,4.5,15.78.03-1.41.04-2.84.04-4.28,0-14.14-1.23-26.82-3.16-35.43.22.11.44.16.66.16.55.01,1.11-.31,1.62-.9,1.89,8.59,3.08,21.13,3.08,35.09,0,7.57-.35,14.71-.98,21.04v.02Z"/>
    <path class="cls-1" d="m35.35,135.15h-.89c-.69-3.05-1.47-5.81-2.3-8.21.33.2.25.14.46-.22.21-.36.36-.8.42-1.3.85,2.88,1.64,6.16,2.31,9.73Z"/>
    <path class="cls-1" d="m55.37,126.24c-.65,2.56-1.26,5.24-1.81,8.01-.06.3-.12.6-.17.9h-1.64c.49-3.13,1.06-6.08,1.7-8.82.06.14.12.27.19.39.35.59-.08.38,1.73-.48Z"/>
    <path class="cls-1" d="m55.37,126.24c-.65,2.56-1.26,5.24-1.81,8.01-.06.3-.12.6-.17.9h-1.64c.49-3.13,1.06-6.08,1.7-8.82.06.14.12.27.19.39.35.59-.08.38,1.73-.48Z"/>
    <path class="cls-1" d="m35.35,135.15h-.89c-.69-3.05-1.47-5.81-2.3-8.21.33.2.25.14.46-.22.21-.36.36-.8.42-1.3.85,2.88,1.64,6.16,2.31,9.73Z"/>
    <path class="cls-1" d="m21.86,123.46s0,.07,0,.11c-.01,0-.01-.01-.02-.01.01-.03.02-.07.03-.1Z"/>
    <path class="cls-1" d="m35.35,135.15h-.89c-.69-3.05-1.47-5.81-2.3-8.21.33.2.25.14.46-.22.21-.36.36-.8.42-1.3.85,2.88,1.64,6.16,2.31,9.73Z"/>
    <path class="cls-1" d="m55.37,126.24c-.65,2.56-1.26,5.24-1.81,8.01-.06.3-.12.6-.17.9h-1.64c.49-3.13,1.06-6.08,1.7-8.82.06.14.12.27.19.39.35.59-.08.38,1.73-.48Z"/>
    <path class="cls-1" d="m78.02,125.39c-1.08,0-2.31-1.57-4.25-2.48-1.24-.6-2.77-.91-4.74-.35h-.02c-.17.05-.34.1-.5.14-.66.18-1.21.32-1.67.43-.54.13-.98.22-1.34.28-.7.13-1.15.17-1.67.24-.06,0-.13,0-.2.02-.45.06-.98.16-1.75.36-.26.07-.55.14-.88.24-.13.04-.27.08-.42.12-2.66.78-4.25,1.41-5.21,1.86-1.81.86-1.38,1.07-1.73.48-.07-.12-.13-.25-.19-.39-.66-1.63-.13-4.38,1.85-6.75.71-.85,1.6-1.65,2.7-2.34.94-.59,2.02-1.09,3.26-1.45.36-.11.73-.21,1.12-.29.19-.05.39-.08.59-.12.05-.01.09-.01.14-.02.39-.05.77-.1,1.14-.13.25-.02.49-.04.73-.05.62-.03,1.2-.04,1.74-.02.4.02.78.05,1.15.09h0c.18.02.35.04.52.07,2.53.38,4.37,1.36,5.73,2.57h0c2.93,2.64,3.56,6.38,3.9,7.49Z"/>
    <path class="cls-1" d="m47.26,131.64c.13,1.21.28,2.39.45,3.52h-2.23c-.09-2.01-.13-4.07-.13-6.17-.74-6.75-1.16-14.54-1.16-22.83,0-14.27,1.25-27.06,3.22-35.67.35.27.72.4,1.09.4s.72-.14,1.11-.43c-2.2,8.58-3.62,22.13-3.62,37.37,0,2.11.03,4.19.09,6.22.91-8.8,2.59-15.89,4.7-19.8.36.42.71.76,1.03,1.02.1.08.18.14.25.18-2.87,6.41-4.83,18.99-4.83,33.47,0,.9.01,1.79.02,2.67,0,.02,0,.03.01.05Z"/>
    <path class="cls-1" d="m55.48,104.51c-3.88,4.56-4.5,9.21-2.9,9.58-1.31,5.51-2.38,11.97-3.03,18.9-.07.73-.13,1.45-.19,2.17h-1.65c.06-.72.12-1.44.19-2.17,1.29-13.78,4.21-25.67,7.49-32.02.18.11.37.17.56.18.61.03.43-.18,1.26-.48-.59,1.11-1.17,2.39-1.73,3.84Z"/>
    <path class="cls-1" d="m55.37,126.24c-.65,2.56-1.26,5.24-1.81,8.01-.06.3-.12.6-.17.9h-1.64c.49-3.13,1.06-6.08,1.7-8.82.06.14.12.27.19.39.35.59-.08.38,1.73-.48Z"/>
    <path class="cls-1" d="m55.37,126.24c-.65,2.56-1.26,5.24-1.81,8.01-.06.3-.12.6-.17.9h-1.64c.49-3.13,1.06-6.08,1.7-8.82.06.14.12.27.19.39.35.59-.08.38,1.73-.48Z"/>
    <path class="cls-1" d="m35.35,135.15h-.89c-.69-3.05-1.47-5.81-2.3-8.21.33.2.25.14.46-.22.21-.36.36-.8.42-1.3.85,2.88,1.64,6.16,2.31,9.73Z"/>
    <path class="cls-1" d="m21.86,123.46s0,.07,0,.11c-.01,0-.01-.01-.02-.01.01-.03.02-.07.03-.1Z"/>
    <path class="cls-1" d="m35.35,135.15h-.89c-.69-3.05-1.47-5.81-2.3-8.21.33.2.25.14.46-.22.21-.36.36-.8.42-1.3.85,2.88,1.64,6.16,2.31,9.73Z"/>
    <path class="cls-1" d="m21.86,123.46s0,.07,0,.11c-.01,0-.01-.01-.02-.01.01-.03.02-.07.03-.1Z"/>
    <path class="cls-1" d="m21.86,123.46s0,.07,0,.11c-.01,0-.01-.01-.02-.01.01-.03.02-.07.03-.1Z"/>
    <path class="cls-1" d="m35.35,135.15h-.89c-.69-3.05-1.47-5.81-2.3-8.21.33.2.25.14.46-.22.21-.36.36-.8.42-1.3.85,2.88,1.64,6.16,2.31,9.73Z"/>
    <rect class="cls-1" x="29.68" y="135.15" width="26.82" height="5.62"/>
  </g>
</svg>