<?xml version="1.0" encoding="UTF-8"?>
<svg id="_Шар_2" data-name="Шар 2" xmlns="http://www.w3.org/2000/svg" viewBox="0 0 58.98 54.48">
  <defs>
    <style>
      .cls-1 {
        fill: #5f7d4a;
        stroke: #193319;
        stroke-miterlimit: 10;
        stroke-width: .25px;
      }
    </style>
  </defs>
  <g id="_Шар_2-2" data-name="Шар 2">
    <path class="cls-1" d="m38.56,29.88c-.62,1.39-1.25,2.79-1.87,4.17-.95,2.11-1.83,4.05-2.62,5.83-.23-2.94-.51-6.24-.86-9.78-.05-.48-.09-.96-.14-1.45,3.51-12.06,6.96-24.44,7.5-24.33.61.12-.69,13.08-2.01,25.56Z"/>
    <path class="cls-1" d="m25.35,39.78c-.86-1.91-1.8-4-2.84-6.31-.57-1.25-1.14-2.52-1.7-3.79-1.32-12.42-2.59-25.25-1.99-25.37.54-.11,4.03,12.41,7.56,24.54h0c-.42,4.29-.75,7.88-1.03,10.93Z"/>
    <path class="cls-1" d="m25.35,39.78c-.32,3.43-.56,6.16-.75,8.37-.63-.94-1.31-1.95-2.03-3.02-1.2-1.78-2.53-3.75-4-5.92-.22-.33-.44-.65-.67-.98-.09-.34-.18-.68-.27-1.03-3.48-13.26-7.62-29.1-7.01-29.31.46-.17,5.24,10.75,10.19,21.79.56,1.27,1.13,2.54,1.7,3.79,1.04,2.31,1.98,4.4,2.84,6.31Z"/>
    <path class="cls-1" d="m41.57,37.78c-.03.13-.07.26-.1.39-.01,0-.01.01-.01.01-.37.56-.75,1.12-1.13,1.68-1.27,1.87-2.43,3.59-3.49,5.17h0c-.78,1.16-1.51,2.23-2.19,3.24-.15-2.27-.34-5.11-.58-8.39.79-1.78,1.67-3.72,2.62-5.83.62-1.38,1.25-2.78,1.87-4.17,4.89-10.91,9.57-21.58,10.03-21.41.61.21-3.54,16.05-7.02,29.31Z"/>
    <path class="cls-1" d="m43.74,44.01c-.66,1.37-1.31,2.69-1.94,3.96-.69.77-1.39,1.55-2.08,2.31-.66.73-1.29,1.43-1.9,2.1h-2.88c-.09-1-.18-2.38-.29-4.1h0c.68-1.02,1.41-2.09,2.19-3.24h0c1.06-1.59,2.22-3.31,3.49-5.18.38-.56.76-1.12,1.13-1.68,0,0,0-.01.01-.01,7.14-10.59,14.5-21.71,14.89-21.48.48.28-6.64,15-12.62,27.32Z"/>
    <path class="cls-1" d="m34.94,52.38h-10.73c.11-1.14.23-2.52.39-4.22.19-2.21.43-4.94.75-8.37.28-3.05.61-6.64,1.03-10.92h0c.02-.22.04-.44.06-.66C27.72,14.9,28.88.12,29.52.12c.72,0,2.25,15.19,3.55,28.52.05.49.09.97.14,1.45.35,3.54.63,6.84.86,9.78.24,3.28.43,6.12.58,8.39h0c.11,1.73.2,3.11.29,4.11Z"/>
    <path class="cls-1" d="m24.6,48.16c-.16,1.7-.28,3.08-.39,4.22h-1.65c-.33-.34-.67-.69-1.01-1.05-.55-.57-1.11-1.16-1.69-1.76-1.13-1.18-2.27-2.37-3.41-3.56-.42-.86-.85-1.74-1.29-2.64C9.17,31.03,2.05,16.32,2.53,16.04c.4-.23,8.08,11.4,15.37,22.19.23.33.45.65.67.98,1.47,2.17,2.8,4.14,4,5.92.72,1.07,1.4,2.08,2.03,3.02Z"/>
    <path class="cls-1" d="m22.56,52.38h-6.69C8.21,41.66-.27,29.77.14,29.42c.32-.26,8.14,8.03,16.31,16.58,1.14,1.19,2.28,2.38,3.41,3.56.58.6,1.14,1.19,1.69,1.76.34.36.68.71,1.01,1.05Z"/>
    <path class="cls-1" d="m44.19,52.38h-6.37c.61-.67,1.24-1.37,1.9-2.1.69-.76,1.39-1.54,2.08-2.31,8.34-9.24,16.69-18.67,17.04-18.39.41.32-7.41,12.03-14.65,22.8Z"/>
    <rect class="cls-1" x="14.07" y="52.38" width="31.4" height="1.98"/>
  </g>
</svg>