<?xml version="1.0" encoding="UTF-8"?>
<svg id="_Шар_2" data-name="Шар 2" xmlns="http://www.w3.org/2000/svg" viewBox="0 0 72.63 124.79">
  <defs>
    <style>
      .cls-1 {
        fill: #efdbeb;
      }

      .cls-1, .cls-2, .cls-3 {
        stroke: #193319;
        stroke-miterlimit: 10;
        stroke-width: .25px;
      }

      .cls-2 {
        fill: #5f7d4a;
      }

      .cls-3 {
        fill: #c383b9;
      }
    </style>
  </defs>
  <g id="_Шар_2-2" data-name="Шар 2">
    <path class="cls-1" d="m64.83,20.07c-.74-1.45-1.05.49-2.19,2.78-1.32,2.62-3.7,5.68-9.08,4.63,3.71,1.69,6.81,4.37,7.19,8.08.45,4.31-1.86,5.87-2.08,9.82-.08,1.38-.31,2.66-.69,3.78-.85,2.54-2.49,4.25-4.89,4.25-1.06,0,.56-1.11,1.51-2.53,1.17-1.73,1.33-3.89-5.66-4.99-2.46-.39-4.53-.89-6.24-1.5-4.98-1.74-7.09-4.24-7.83-6.79-.9,1.9-2.71,3.69-6.06,5.1-1.95.82-4.43,1.52-7.55,2.01-12.72,2.01-1.79,7.51-4.17,7.51-3.46,0-5.33-3.56-5.58-8.03-.22-3.95-2.53-5.5-2.08-9.82.34-3.3,2.84-5.8,6.01-7.49-4.52-.1-6.32-3.64-7.34-6.01-.73-1.69-1.04-2.78-1.66-1.6-2.67,5.24-5.48.06-4.46-2.12,2.08-4.42,4.17-1.75,5.58-3.45,3.07-3.72,6.23-6.48,10.41-6.02,2.36.25,4.31.87,5.92,1.73.37-3.84,1.56-6.79,5.02-7.44,3.03-.57,4.4-1.85,6.85-1.85,1.64,0,2.73.68,4.7.84,4.67.39,6.97,3.58,7.67,8.87,1.46-.67,3.16-1.14,5.16-1.37,4.19-.45,7.35,2.3,10.42,6.02,1.42,1.71,3.49-.96,5.58,3.45,1.02,2.18-1.79,7.36-4.47,2.12Z"/>
    <path class="cls-2" d="m34.13,79.66c-.72-.22-1.64-.59-2.65-1.07-1.22-5.55-4.7-13.01-11.05-17.14-.07-.04-.14-.09-.21-.13.13-10.66-1.71-10.22-.9-11.09.57-.63,7.32,2.45,12.36,7.42,1.06,6.85,1.91,14.26,2.46,22.02Z"/>
    <path class="cls-2" d="m32.8,97.4c-.08-.38-.18-.75-.31-1.12.14.37.24.74.31,1.12Z"/>
    <path class="cls-2" d="m32.76,101.08c.1-.44.16-.86.2-1.3-.03.42-.09.85-.2,1.3Z"/>
    <path class="cls-2" d="m34.73,106.64v.21s-.03-.09-.05-.14c.02-.02.04-.05.05-.07Z"/>
    <path class="cls-2" d="m38.86,77.28h0c-.33.65-.82,1.22-1.53,1.72.27-3.21.58-6.34.95-9.41.51,1.51.9,2.9,1.05,4.17,0,.01,0,.02,0,.03t0,.02c.15,1.32.04,2.48-.48,3.47Z"/>
    <path class="cls-2" d="m68.43,47.51c-.81.59-1.65,1.65-2.27,3.52-2.38,7.14-5.07,13.55-7.44,18-1.41,2.64-2.82,4.97-5.55,6.99-.28.21-.58.42-.89.62-1.44.93-3.2,1.79-5.45,2.58-4.06,1.42-5.06,5.27-6.48,4.68-.05-.02-.11-.05-.16-.08-.31-.18-.56-.49-.77-.92-.57-1.15-.75-3.15-.56-5.61h0c.52-1,.63-2.17.48-3.48t0-.02s0-.02,0-.03c.99-5.08,3.19-11.07,6.67-15.65,2.22-2.95,5.32-5.36,8.59-7.22-.94,1.42-2.57,2.53-1.51,2.53,2.4,0,4.04-1.71,4.89-4.25,3.93-1.77,7.76-2.76,10.32-2.95,1.38-.11,2.38.01,2.84.36.78.59-.91-.37-2.71.93Z"/>
    <path class="cls-2" d="m38.86,77.28c.09-1.08.25-2.25.48-3.47.15,1.32.04,2.48-.48,3.47Z"/>
    <path class="cls-2" d="m31.36,85.43c-.1.11-.26.18-.46.21-.27.03-.62-.01-1.04-.11-2.33-.57-6.77-3.16-11.08-6.44-.08-.06-.17-.12-.25-.19-1.47-1.11-2.92-2.32-4.27-3.54-2.99-2.72-5.47-8.37-7.14-12.35-1.59-3.78-3.74-4.47-5.24-4.51-1.03-.03-1.75.25-1.75.04,0-.35.66-.64,1.78-.83,3.72-.62,12.52-.03,18.31,3.6.07.04.14.09.21.13,6.36,4.13,9.83,11.59,11.05,17.14.74,3.36.65,6.02-.12,6.85Z"/>
    <path class="cls-3" d="m42.69,44.4c-1.8,7.33-3.3,15.87-4.41,25.18h0c-.37,3.07-.68,6.2-.95,9.42-.46.33-1.01.63-1.66.89-.23.1-.78,0-1.55-.23-.55-7.76-1.4-15.17-2.46-22.02-.83-5.35-1.8-10.36-2.87-14.93,3.35-1.41,5.16-3.2,6.06-5.1.74,2.55,2.85,5.05,7.83,6.79Z"/>
    <path class="cls-2" d="m34.13,79.66c-.72-.22-1.64-.59-2.65-1.07-1.22-5.55-4.7-13.01-11.05-17.14-.07-.04-.14-.09-.21-.13.13-10.66-1.71-10.22-.9-11.09.57-.63,7.32,2.45,12.36,7.42,1.06,6.85,1.91,14.26,2.46,22.02Z"/>
    <path class="cls-2" d="m38.86,77.28h0c-.33.65-.82,1.22-1.53,1.72.27-3.21.58-6.34.95-9.41.51,1.51.9,2.9,1.05,4.17,0,.01,0,.02,0,.03t0,.02c.15,1.32.04,2.48-.48,3.47Z"/>
    <path class="cls-2" d="m32.8,97.4c-.08-.38-.18-.75-.31-1.12.14.37.24.74.31,1.12Z"/>
    <path class="cls-2" d="m32.96,99.79c-.03.42-.09.85-.2,1.3.1-.44.16-.86.2-1.3Z"/>
    <path class="cls-2" d="m70.77,93.2c0-2.06-.63-3.87-2.05-5.21-1.71-1.66-4.54-2.65-8.73-2.65-1.91,0-1.6.22-5.58,5.41-.65.85-1.43,1.63-2.27,2.35-.25.2-.5.41-.76.6-1.41,1.08-2.96,2.02-4.46,2.84-.65.36-1.31.7-1.93,1.03-2.13,1.12-3.97,2.08-4.86,3.06-.02-.01-.04-.01-.06-.02-.26-.07-.46-.22-.62-.44-.95-1.22-.55-4.59.01-8.91.34-2.6,6.31-8.33,12.51-11.53.35-.19.7-.36,1.06-.52,2.62-1.22,5.22-1.94,7.4-1.72,4.04.42,6.84,1.7,8.71,3.34,4.81,4.24,3.6,10.96,1.63,12.35Z"/>
    <path class="cls-2" d="m31.53,101.89h0s-.02,0-.03-.01c0,.01.02.01.03.01Z"/>
    <path class="cls-2" d="m32.8,97.4c-.08-.38-.18-.75-.31-1.12.14.37.24.74.31,1.12Z"/>
    <path class="cls-2" d="m32.76,101.08c.1-.44.16-.86.2-1.3-.03.42-.09.85-.2,1.3Z"/>
    <path class="cls-2" d="m34.73,106.64v.21s-.03-.09-.05-.14c.02-.02.04-.05.05-.07Z"/>
    <path class="cls-2" d="m32.96,98.56c.03.4.03.8,0,1.22-.04.43-.1.85-.2,1.3-.04.21-.1.43-.17.65-.03.13-.07.26-.12.39-.16.07-.35.06-.57-.03-.05-.02-.11-.05-.16-.08-.07-.03-.13-.07-.2-.12h-.01s-.02-.01-.03-.02c-.01-.01-.02-.02-.03-.03-.09-.06-.19-.13-.29-.21-.3-.24-.64-.55-1.01-.91-.1-.11-.21-.22-.32-.32-.11-.12-.22-.23-.34-.34-.38-.4-.79-.82-1.22-1.25-.14-.15-.28-.29-.43-.43-.36-.36-.74-.72-1.14-1.08-.24-.22-.49-.44-.74-.66-.19-.16-.38-.32-.57-.47-.15-.13-.31-.25-.47-.37-.18-.14-.36-.27-.54-.4-.2-.15-.4-.28-.6-.41-.15-.11-.31-.21-.47-.3-.15-.1-.31-.19-.46-.27-.26-.16-.53-.3-.8-.43h-.02c-.29-.15-.59-.29-.9-.4-.21-.09-.43-.17-.64-.23-.21-.07-.41-.13-.62-.18,0-.01-.02-.01-.03-.01-.09-.03-.18-.05-.27-.07-.21-.05-.42-.09-.63-.12-.14-.03-.29-.05-.44-.06-1.03-.13-2.12-.09-3.24.17-6.81,1.55-9.97,3.89-11.44,6.03-2,2.94-.82,5.55-1.44,5.34-.53-.19-4.84-8.41.42-15.26,1.26-1.66,3.1-3.23,5.67-4.6,1.04-.55,2.52-.76,4.24-.67.24,0,.49.03.74.06.26.02.52.05.79.09.27.03.54.08.81.13.34.06.69.13,1.04.21.21.04.42.09.63.15.39.1.79.21,1.19.33.25.07.5.15.76.24.03.01.07.02.11.03.12.04.25.08.37.13.21.07.42.15.63.23.2.07.41.15.61.23.37.15.75.31,1.12.48.35.15.7.31,1.05.49.33.16.65.33.98.5.3.16.6.33.89.49.44.26.89.53,1.33.83.16.1.31.21.46.31.4.27.8.56,1.18.87.26.2.51.41.76.62.15.13.29.26.44.39.16.15.31.29.46.44.15.14.3.29.46.46.14.15.29.31.43.47.12.13.24.27.35.41.29.35.56.7.8,1.07.12.17.23.34.33.51.11.18.21.35.31.53.22.39.41.8.56,1.21.03.07.06.14.08.2.03.07.05.14.07.21.13.37.23.74.31,1.12.04.2.07.39.1.58.03.19.05.39.06.58Z"/>
    <path class="cls-2" d="m31.53,101.89h0s-.02,0-.03-.01c0,.01.02.01.03.01Z"/>
    <path class="cls-2" d="m32.8,97.4c-.08-.38-.18-.75-.31-1.12.14.37.24.74.31,1.12Z"/>
    <path class="cls-2" d="m32.96,99.79c-.03.42-.09.85-.2,1.3.1-.44.16-.86.2-1.3Z"/>
    <path class="cls-2" d="m31.53,101.89h0s-.02,0-.03-.01c0,.01.02.01.03.01Z"/>
    <path class="cls-2" d="m31.53,101.89h0s-.02,0-.03-.01c0,.01.02.01.03.01Z"/>
    <path class="cls-2" d="m36.39,97.87c-.01.58-.02,1.15-.02,1.73-.03-.54-.02-1.11.02-1.73Z"/>
    <path class="cls-2" d="m36.39,97.87c-.01.58-.02,1.15-.02,1.73-.03-.54-.02-1.11.02-1.73Z"/>
    <path class="cls-2" d="m40.07,100.62c-.44.91-.87,1.87-1.29,2.85-.09.21-.18.42-.26.64-.01,0-.01.03-.02.04-.85,2.12-1.53,4.2-2.03,6.14.05,1.29.1,2.54.16,3.77v.04c.08,1.5.17,2.95.28,4.39v.02c.04.64.09,1.28.14,1.9h-3.2c.35-3.45.6-7.14.77-11.01-.06-.21-.13-.41-.2-.61-.16-.49-.34-.99-.53-1.5-.26-.69-.53-1.4-.83-2.1-.48-1.14-1-2.26-1.53-3.3.07.05.13.09.2.12.06.04.11.06.16.08.22.09.41.1.57.03.05-.13.09-.26.12-.39.36.75.71,1.53,1.04,2.32.38.89.72,1.79,1.04,2.66.02.05.03.1.05.14v-.21c.09-2.82.13-5.74.1-8.72-.54-2.24-1.36-4.66-2.4-7.14-.79-1.89-1.67-3.65-2.58-5.25.42.1.77.14,1.04.11.53,1.04,1.05,2.16,1.54,3.3,1.03,2.45,1.84,4.85,2.38,7.06-.05-4.68-.23-9.52-.55-14.49-.04-.62-.08-1.24-.13-1.86.76.24,1.32.33,1.55.23.64-.26,1.19-.56,1.66-.89-.15,1.78-.28,3.58-.4,5.4-.14,2.14-.25,4.25-.33,6.33.48-1.82,1.12-3.73,1.91-5.68.29-.73.6-1.46.91-2.15.21.43.46.74.77.92-.27.6-.53,1.21-.78,1.85-1.79,4.46-2.81,8.74-3.02,12.07,0,.05-.01.09,0,.13-.04.61-.05,1.18-.02,1.73-.02,1-.02,2-.02,2.97,0,1.71.02,3.39.06,5.04.36-1.12.77-2.28,1.24-3.45.05-.13.11-.26.16-.39.03-.07.06-.14.09-.21.48-1.17,1-2.31,1.55-3.37.16.22.36.37.62.44Z"/>
    <rect class="cls-2" x="26.96" y="120.42" width="15.73" height="4.25"/>
  </g>
</svg>