<?xml version="1.0" encoding="UTF-8"?>
<svg id="_Шар_2" data-name="Шар 2" xmlns="http://www.w3.org/2000/svg" viewBox="0 0 48.83 48.52">
  <defs>
    <style>
      .cls-1 {
        fill: #5f7d4a;
        stroke: #193319;
        stroke-miterlimit: 10;
        stroke-width: .25px;
      }
    </style>
  </defs>
  <g id="_Шар_2-2" data-name="Шар 2">
    <path class="cls-1" d="m24.33,21.95c-.08.29-.15.58-.22.88-.67,2.8-1.03,6.06-1.2,9.2-.08-.11-.16-.23-.23-.34-1.11-1.53-2.2-2.86-3.27-3.99-.35-1.31-.71-2.57-1.08-3.7C13.11,7.94,2.48,6.85,5.83,6.85c2.56,0,10.03.44,15.02,7.42h0c1.42,2,2.64,4.51,3.48,7.68Z"/>
    <path class="cls-1" d="m30.33,24c-.4,1.21-.78,2.56-1.15,3.97-.67.73-1.35,1.53-2.03,2.41-.46.59-.92,1.22-1.38,1.88-.45.65-.9,1.34-1.35,2.06-.5-.81-1.01-1.57-1.51-2.29.17-3.14.53-6.4,1.2-9.2.07-.3.14-.59.22-.88.92-3.45,2.28-6.11,3.85-8.17,4.99-6.51,12.15-6.93,14.65-6.93,3.35,0-7.28,1.09-12.5,17.15Z"/>
    <path class="cls-1" d="m28.18,13.78c-1.57,2.06-2.93,4.72-3.85,8.17-.84-3.17-2.06-5.68-3.48-7.67h0c-1.18-4.85,1.8-13.34,3.41-14.14,1.62.58,3.96,5.08,3.92,13.64Z"/>
    <path class="cls-1" d="m30.11,35.55c-1.85,2.18-2.91,3.97-3.53,5.37h-4.33c-.61-1.41-1.67-3.2-3.52-5.37C7.62,22.48-1.38,25.16.34,23.44c1.19-1.19,9.49-5.88,19.07,4.26,1.07,1.13,2.16,2.46,3.27,3.99.07.11.15.23.23.34.5.72,1.01,1.48,1.51,2.29.45-.72.9-1.41,1.35-2.06.46-.66.92-1.29,1.38-1.88.68-.88,1.36-1.68,2.03-2.41,9.69-10.5,18.12-5.73,19.32-4.53,1.72,1.72-7.28-.96-18.39,12.11Z"/>
    <rect class="cls-1" x="18.19" y="40.92" width="11.92" height="7.48"/>
  </g>
</svg>