<?xml version="1.0" encoding="UTF-8"?>
<svg id="_Шар_2" data-name="Шар 2" xmlns="http://www.w3.org/2000/svg" viewBox="0 0 50.85 69.17">
  <defs>
    <style>
      .cls-1 {
        fill: #5f7d4a;
        stroke-width: 0px;
      }
    </style>
  </defs>
  <g id="_Шар_2-2" data-name="Шар 2">
    <path class="cls-1" d="m50.68,18.89c-.1.65-.26,1.39-.47,2.21-.79,3.08-2.34,7.08-4.66,10.01-.59.75-1.33,1.43-2.16,2.02-.3.22-.62.43-.95.63-4.29,2.61-10.29,3.42-12.66,2.82-.43-.11-.85.16-.96.59-.21.84-.37,1.75-.49,2.72-.13,1.11,0,4.74.07,5.36h0c.26,2.05.44,4.29.54,6.67.06,1.54.08,3.14.07,4.8,0,.94-.03,1.9-.06,2.87-.04,1.36-.12,2.74-.21,4.15-.01.15-.02.31-.03.46h6.6v4.97h-19.05v-4.97h11.07c.04-.83.06-1.64.06-2.44.03-4.13-.38-7.82-1.18-10.73,0-.03-.01-.06-.03-.1-.2-.51-.41-1.02-.64-1.54-.53-1.16-1.15-2.27-1.83-3.29-.2-.31-.59-.43-.94-.29-1.32.52-3.88.74-6.79.31-1.11-.15-2.26-.4-3.43-.77-2-.61-4.01-1.56-5.79-2.93-.86-.66-1.67-1.59-2.41-2.67-.26-.38-.52-.79-.76-1.2C.9,33.98-.64,27.71.26,26.64c.77-.92,9.91-2.22,16.65,2.23,1.61,1.06,2.9,2.21,3.92,3.4,4.06,4.69,4.03,9.92,3.17,12.24-.1.26-.04.56.13.77,1.16,1.45,2.18,3.09,3,4.89.05.11.1.22.15.33-.36-3.13-1.37-5.09-1.23-7.65.06-1.18.24-2.25-.02-3.25-.73-2.9-.96-3.65-1.68-6.36-1.99-7.54-2.72-14.39-2.15-19.66.02-.22-.04-.43-.19-.6-1.32-1.41-2.37-5.39.21-8.9C24.79.56,30.72-.3,31.15.08c.12.1.31,1.22.42,2.67.01.18.02.36.03.55.1,2.01,0,4.46-.69,5.8-1.53,2.98-5.07,4.17-7.04,4.39-.39.04-.68.36-.7.75-.28,5.81.97,13.36,3.68,21.5.24.7,1.22.74,1.51.05,0-.01,0-.02,0-.03.08-.19.08-.4,0-.59-1.05-3.04-.21-10.73,4.03-14.76,2.94-2.79,9.81-4.37,14.34-4.51.67-.02,1.28-.01,1.82.03.98.07,1.73.25,2.13.54.22.15.22,1.07-.01,2.42Z"/>
  </g>
</svg>