<?xml version="1.0" encoding="UTF-8"?>
<svg id="_Шар_2" data-name="Шар 2" xmlns="http://www.w3.org/2000/svg" viewBox="0 0 29.2 41.42">
  <defs>
    <style>
      .cls-1 {
        fill: #5f7d4a;
        stroke: #193319;
        stroke-miterlimit: 10;
        stroke-width: .25px;
      }
    </style>
  </defs>
  <g id="_Шар_2-2" data-name="Шар 2">
    <path class="cls-1" d="m17.96,39.32h-6.56c.21-2.95.46-6.4.75-10.46.02-.21.03-.43.05-.65C13.17,14.9,14.05.12,14.54.12c.55,0,1.71,15.18,2.7,28.51h0c.04.5.07.98.11,1.46.25,3.32.45,6.42.62,9.22Z"/>
    <path class="cls-1" d="m21.41,29.88c-.47,1.39-.95,2.79-1.42,4.17-.65,1.89-1.25,3.64-1.8,5.27h-.23c-.17-2.8-.36-5.9-.62-9.22-.04-.48-.07-.96-.11-1.45h0c2.67-12.07,5.29-24.44,5.7-24.33.46.12-.52,13.08-1.53,25.56Z"/>
    <path class="cls-1" d="m12.15,28.85c-.3,4.06-.55,7.51-.75,10.46h-.19c-.61-1.78-1.27-3.72-2-5.84-.43-1.25-.87-2.52-1.29-3.79-1-12.42-1.97-25.25-1.51-25.37.41-.11,3.06,12.41,5.75,24.54Z"/>
    <path class="cls-1" d="m11.21,39.32h-5.28c-.14-.69-.28-1.39-.43-2.11C2.85,23.95-.29,8.1.17,7.9c.35-.17,3.98,10.75,7.74,21.79.43,1.27.86,2.54,1.29,3.79.73,2.12,1.39,4.06,2,5.84Z"/>
    <path class="cls-1" d="m23.69,37.78c-.11.52-.21,1.03-.31,1.54h-5.2c.55-1.63,1.16-3.38,1.8-5.27.47-1.38.95-2.78,1.42-4.17,3.72-10.91,7.27-21.58,7.62-21.41.46.21-2.69,16.05-5.34,29.31Z"/>
    <rect class="cls-1" x="3.13" y="39.32" width="23.87" height="1.98"/>
  </g>
</svg>