<?xml version="1.0" encoding="UTF-8"?>
<svg id="_Шар_2" data-name="Шар 2" xmlns="http://www.w3.org/2000/svg" viewBox="0 0 65.2 96.7">
  <defs>
    <style>
      .cls-1 {
        fill: #5f7d4a;
        stroke: #193319;
        stroke-miterlimit: 10;
        stroke-width: .25px;
      }
    </style>
  </defs>
  <g id="_Шар_2-2" data-name="Шар 2">
    <path class="cls-1" d="m39.85,18.29c0,8.12-3.23,14.09-5.95,15.6-.45.25-.88.38-1.28.38-.45,0-.95-.2-1.48-.58-2.73-1.94-6.11-8.56-6.11-16.48,0-4.59,1.68-8.76,3.46-11.82,1.89-3.25,3.88-5.26,4.13-5.26.23,0,2.35,2.58,4.24,6.45,1.58,3.25,2.99,7.4,2.99,11.71Z"/>
    <path class="cls-1" d="m53.59,35.3h0c-.88,1.58-1.96,3.1-3.3,4.47-.22.22-.46.45-.72.68-.75.65-1.66,1.31-2.65,1.94-3.84,2.46-8.86,4.51-10.31,4.37h0c-.14,0-.24-.05-.31-.1-.43-.34-.94-2.09-.92-4.53.02-3.38,1.05-8.11,4.68-12.24,3.55-4.03,8.44-6.09,12.06-7.07,2.75-.74,4.77-.85,4.93-.72.26.23,0,7.03-3.45,13.2Z"/>
    <path class="cls-1" d="m55.23,56.81c-.12.09-.24.17-.37.25-.59.38-1.18.76-1.77,1.13-.87.55-1.74,1.08-2.6,1.6-.4.24-.8.48-1.2.71-.62.36-1.24.72-1.85,1.05-4.42,2.46-8.37,4.17-10.52,4-.43-.03-.79-.14-1.07-.34-.42-.3-.56-1.15-.43-2.38.05-.58.17-1.26.35-1.99,0-.02.01-.04.01-.06.81-3.24,2.77-7.65,5.75-11.33.93-1.15,1.96-2.23,3.08-3.17.86-.73,1.81-1.4,2.81-2,.88-.55,1.8-1.04,2.74-1.49,1.31-.64,2.66-1.19,3.99-1.66,5.6-2,10.76-2.63,10.9-2.4.26.39-2.18,12.8-9.82,18.08Z"/>
    <path class="cls-1" d="m30.27,45.96s-.03.02-.04.03c-.28.22-1.03.4-2.11.43-3.24.11-9.37-1.11-13.97-6.41-.08-.1-.16-.19-.24-.29-.49-.58-.94-1.19-1.34-1.81h0c-.8-1.22-1.44-2.47-1.96-3.73-2.46-5.93-2.19-11.81-1.93-12.04.11-.09,1.26.04,2.98.5,1.18.33,2.62.81,4.16,1.49.3.13.6.27.91.41,2.64,1.26,5.47,3.1,7.76,5.67.28.31.55.63.81.96,1.32,1.69,2.58,4.42,3.53,7.08,1.3,3.65,2,7.17,1.44,7.71Z"/>
    <path class="cls-1" d="m35.77,60.84c-.11.64-.23,1.3-.35,1.99.05-.58.17-1.26.35-1.99Z"/>
    <path class="cls-1" d="m48.89,90.88v5.7H14.98v-5.7h15.06c.49-4.26.85-7.65,1.05-9.53.11-1.09.08-2.18-.11-3.26-.83-4.73-1.72-8.9-2.66-12.39.42-.03.76-.14,1.03-.33.25-.18.41-.57.46-1.13.44,1.45.87,3.05,1.29,4.79-.83-8.38-1.85-16.01-2.98-22.61,1.08-.03,1.83-.21,2.11-.43.52,3.13,1.01,6.48,1.47,10.02-.03-7.86-.22-15.35-.56-22.32.53.38,1.03.58,1.48.58.4,0,.83-.13,1.28-.38-.42,7.54-.65,15.84-.65,24.66.53-6.47,1.25-12.03,2.12-16.42-.02,2.44.49,4.19.92,4.53.07.05.17.09.31.1-.6,4.68-.86,10.16-1.2,16.18.01-.04.01-.07.02-.11-.13,1.23.01,2.08.43,2.38.28.2.64.31,1.07.34-.97,6.64-1.67,15.02-2.03,24.64h0c.03.24.06.46.09.69h13.91Z"/>
    <path class="cls-1" d="m29.81,64.24c-.05.56-.21.95-.46,1.13-.27.19-.61.3-1.03.33-1.85.17-5.08-1.09-8.8-3.04-.71-.37-1.44-.77-2.19-1.19-1.57-.88-3.19-1.85-4.81-2.86-.57-.36-1.13-.71-1.69-1.08-.16-.1-.33-.2-.49-.31-.31-.2-.62-.42-.91-.64h0C2.22,51.09-.1,39.26.14,38.88c.14-.21,4.76.34,10.01,2.1.64.21,1.29.45,1.94.7.51.19,1.03.4,1.54.63,2.5,1.07,4.95,2.43,6.96,4.12,6.24,5.24,9.53,14.49,9.22,17.81Z"/>
  </g>
</svg>