<?xml version="1.0" encoding="UTF-8"?>
<svg id="_Шар_2" data-name="Шар 2" xmlns="http://www.w3.org/2000/svg" viewBox="0 0 55.46 88.99">
  <defs>
    <style>
      .cls-1 {
        fill: #efdbeb;
      }

      .cls-1, .cls-2 {
        stroke: #193319;
        stroke-miterlimit: 10;
        stroke-width: .25px;
      }

      .cls-2 {
        fill: #5f7d4a;
      }
    </style>
  </defs>
  <g id="_Шар_2-2" data-name="Шар 2">
    <path class="cls-2" d="m42.92,55.21c-2.53,2.04-5.32,4.47-7.92,6.11h0c-2.31,1.5-4.44,2.38-6.11,1.88-.01-1.94-.01-3.9-.01-5.89v-.64c0-1.86,0-3.71.01-5.54.85-1.68,1.88-3.35,3.01-4.86h0c.57-.78,1.15-1.5,1.75-2.17.39-.43.82-.85,1.31-1.26,5.78-5.03,17.43-8.69,18.79-7.89.78.46-4.92,15.49-10.83,20.26Z"/>
    <path class="cls-2" d="m26.45,51.61c0,1.75,0,3.47-.01,5.18-.01,2.15-.03,4.26-.04,6.35-1.63.6-3.72-.19-6-1.61-2.68-1.67-5.6-4.19-8.22-6.32C6.24,50.43.56,35.4,1.33,34.95c1.38-.82,13.31,2.96,19,8.07.39.36.75.72,1.08,1.08.32.36.64.74.96,1.13,1.54,1.92,2.97,4.14,4.07,6.39Z"/>
    <path class="cls-2" d="m29.07,84.38h-2.99c.06-2.6.11-5.28.15-8.06.01-1.26.04-2.54.06-3.85h0c.04-3.04.07-6.15.1-9.33.01-2.08.03-4.19.04-6.35.01-1.71.01-3.43.01-5.18.01-1.61.01-3.22.01-4.86,0-3.97-.01-7.88-.04-11.69.32.26.72.4,1.19.4.54,0,1-.21,1.39-.61-.06,5.22-.1,10.67-.11,16.28-.01,1.83-.01,3.68-.01,5.54v.64c0,1.99,0,3.94.01,5.89,0,3.31.03,6.56.06,9.74h0c0,1.13.01,2.22.03,3.31.01,2.78.06,5.49.1,8.14Z"/>
    <path class="cls-2" d="m26.29,72.46h0c-.01,1.32-.04,2.6-.06,3.86-1.18.31-3.35.21-5.68-.18-2.56-.43-5.29-1.21-7.17-2.21C6.57,70.35.12,64.78.12,63.35c0-1.14,11.93-3.1,18.21.92.76.49,1.46.97,2.1,1.46h0c3.14,2.4,4.93,4.81,5.86,6.74Z"/>
    <path class="cls-1" d="m32.76,17.79c-.93,4.86-1.36,9.5-2.07,12.79-.46-2.69-.99-4.97-1.53-6.53-.51-1.46-1.04-2.31-1.56-2.31-.43,0-.86.5-1.29,1.39h0c-.63,1.28-1.22,3.31-1.78,5.69-.39-2.92-.82-6.68-1.82-11.04-1.65-7.29.99-13.78,3.17-16.42.67-.81,1.29-1.25,1.72-1.25.47,0,1.29.71,2.15,1.97h0c2.01,2.99,4.28,8.97,3,15.69Z"/>
    <path class="cls-2" d="m55.33,63.35c0,1.43-6.44,7-13.28,10.58-1.86.99-4.6,1.76-7.14,2.19-2.51.43-4.83.51-5.94.11-.01-1.08-.03-2.18-.03-3.29h0c.85-2,2.65-4.6,6.04-7.18.65-.5,1.36-1,2.14-1.5,6.28-4.01,18.21-2.06,18.21-.92Z"/>
    <path class="cls-2" d="m30.7,30.58c-.42,1.99-.93,3.49-1.69,4.26-.39.4-.85.61-1.39.61-.47,0-.88-.14-1.19-.4h0c-1.04-.88-1.44-3.04-1.88-6.22.56-2.39,1.15-4.42,1.78-5.68h0c.43-.9.86-1.4,1.29-1.4.51,0,1.04.85,1.56,2.31.54,1.56,1.07,3.83,1.53,6.53Z"/>
    <rect class="cls-2" x="12.15" y="84.38" width="30.4" height="4.49"/>
  </g>
</svg>