<?xml version="1.0" encoding="UTF-8"?>
<svg id="_Шар_2" data-name="Шар 2" xmlns="http://www.w3.org/2000/svg" viewBox="0 0 31.37 24.95">
  <defs>
    <style>
      .cls-1 {
        fill: #5f7d4a;
        stroke: #193319;
        stroke-miterlimit: 10;
        stroke-width: .25px;
      }
    </style>
  </defs>
  <g id="_Шар_2-2" data-name="Шар 2">
    <path class="cls-1" d="m25.16,15.94c-1.83,4.39-2.79,5.42-4.56,7.83h.91v1.06h-11.9v-1.06h1.17c-1.78-2.4-2.73-3.44-4.55-7.83C2.49,7.04-.99,5.57.46,5.57c1.34,0,4.55,2.95,9.12,8.01,1.13,1.26,2.11,2.33,2.92,3.3,1.77,2.09,2.81,3.66,3.19,5.52.38-1.86,1.41-3.43,3.17-5.51.82-.97,1.79-2.04,2.93-3.3,4.55-5.06,7.77-8.01,9.12-8.01,1.44,0-2.04,1.46-5.76,10.37Z"/>
    <path class="cls-1" d="m18.86,16.89c-1.76,2.09-2.79,3.65-3.17,5.51-.39-1.86-1.43-3.43-3.19-5.52.06-1.38.18-2.86.4-4.37C14.28,2.84,15,.12,15.71.12c.91,0,1.39,5.02,2.42,11.3.36,2.2.59,3.95.74,5.46Z"/>
  </g>
</svg>