<?xml version="1.0" encoding="UTF-8"?>
<svg id="_Шар_2" data-name="Шар 2" xmlns="http://www.w3.org/2000/svg" viewBox="0 0 48.85 69.01">
  <defs>
    <style>
      .cls-1 {
        fill: #5f7d4a;
        stroke: #193319;
        stroke-miterlimit: 10;
        stroke-width: .25px;
      }
    </style>
  </defs>
  <g id="_Шар_2-2" data-name="Шар 2">
    <path class="cls-1" d="m31.47,18.29c0,8.12-3.24,14.09-5.95,15.6-.45.25-.88.38-1.29.38-.45,0-.95-.2-1.47-.58-2.73-1.94-6.11-8.56-6.11-16.48,0-4.59,1.68-8.76,3.45-11.82C21.99,2.14,23.98.12,24.23.12s2.36,2.58,4.24,6.45c1.58,3.25,3,7.4,3,11.71Z"/>
    <path class="cls-1" d="m45.21,35.3h0c-.88,1.58-1.97,3.1-3.3,4.47-.22.22-.46.45-.72.68-.75.65-1.66,1.31-2.66,1.94-3.83,2.46-8.86,4.51-10.31,4.37-.14,0-.25-.05-.31-.1-.44-.34-.94-2.09-.93-4.53.03-3.38,1.05-8.11,4.68-12.24,3.56-4.03,8.44-6.09,12.06-7.07,2.75-.74,4.77-.85,4.94-.72.25.23,0,7.03-3.45,13.2Z"/>
    <path class="cls-1" d="m21.89,45.96s-.04.02-.04.03c-.28.22-1.03.4-2.12.43-3.24.11-9.37-1.11-13.96-6.41-.08-.1-.17-.19-.24-.29-.5-.58-.94-1.19-1.34-1.81h0c-.8-1.22-1.45-2.47-1.97-3.73C-.23,28.25.03,22.37.29,22.14c.12-.09,1.26.04,2.99.5,1.18.33,2.62.81,4.16,1.49.29.13.59.27.91.41,2.63,1.26,5.47,3.1,7.75,5.67.29.31.56.63.81.96,1.32,1.69,2.58,4.42,3.54,7.08,1.29,3.65,2,7.17,1.44,7.71Z"/>
    <path class="cls-1" d="m38.5,62.33v6.56H8.76v-6.56h13.24c-.68-5.78-1.45-11.12-2.27-15.91,1.09-.03,1.84-.21,2.12-.43.51,3.13,1,6.48,1.47,10.02-.04-7.86-.22-15.35-.56-22.32.52.38,1.02.58,1.47.58.41,0,.84-.13,1.29-.38-.42,7.54-.66,15.84-.66,24.66.54-6.47,1.25-12.03,2.12-16.42-.01,2.44.49,4.19.93,4.53.06.05.17.09.31.1-.59,4.52-.85,9.79-1.17,15.57h11.45Z"/>
  </g>
</svg>