<?xml version="1.0" encoding="UTF-8"?>
<svg id="_Шар_2" data-name="Шар 2" xmlns="http://www.w3.org/2000/svg" viewBox="0 0 41.72 53.49">
  <defs>
    <style>
      .cls-1 {
        fill: #efdbeb;
      }

      .cls-1, .cls-2 {
        stroke: #193319;
        stroke-miterlimit: 10;
        stroke-width: .25px;
      }

      .cls-2 {
        fill: #5f7d4a;
      }
    </style>
  </defs>
  <g id="_Шар_2-2" data-name="Шар 2">
    <path class="cls-2" d="m20.26,26.56c-.49.2-1.17.2-1.94.11-2.6-.26-6.4-1.69-9.52-3.31C3.85,20.82-.35,12.67.17,11.3c.66-1.74,6.46-2.77,12.17-.43,2.03.83,4.29,2.89,6.06,5.34v.03c.69,1,1.31,2.03,1.8,3.11v.03c.03,2.29.06,4.69.06,7.17Z"/>
    <path class="cls-2" d="m41.55,11.27c.51,1.37-3.69,9.55-8.63,12.09-2.8,1.43-6.14,2.77-8.69,3.17-.74.17-1.43.23-2,.17,0-3.06.03-6,.06-8.83v-.03c.54-.94,1.17-1.86,1.86-2.71,1.6-2,3.52-3.57,5.23-4.29,4.66-1.89,11.37-1.74,12.17.43Z"/>
    <path class="cls-1" d="m25.15,4.38c0,1.11-.43,2.14-1.11,2.89-.43.49-1,.89-1.63,1.11-.46.2-.97.29-1.51.29-.29,0-.57-.03-.86-.09-.54-.11-1.06-.31-1.49-.63-1.14-.77-1.91-2.09-1.91-3.57,0-1.57.86-2.94,2.14-3.66.31-.2.63-.34,1-.43.34-.11.71-.17,1.11-.17.6,0,1.17.11,1.69.34.51.23.94.54,1.34.91.77.77,1.23,1.83,1.23,3Z"/>
    <path class="cls-2" d="m22.23,29.93c0,5.8.03,11.35.09,16.29h-2.09c.03-3.83.06-7.89.06-12.12,0-2.57,0-5.09-.03-7.54,0-2.49-.03-4.89-.06-7.17v-.03c-.03-3.97-.09-7.57-.17-10.77.29.06.57.09.86.09.54,0,1.06-.09,1.51-.29-.06,2.91-.09,6.06-.11,9.46v.03c-.03,2.83-.06,5.77-.06,8.83v3.23Z"/>
    <rect class="cls-2" x="11.43" y="46.22" width="21.78" height="7.14"/>
  </g>
</svg>