<?xml version="1.0" encoding="UTF-8"?>
<svg id="_Шар_2" data-name="Шар 2" xmlns="http://www.w3.org/2000/svg" viewBox="0 0 22.92 42.34">
  <defs>
    <style>
      .cls-1 {
        fill: #5f7d4a;
        stroke-width: 0px;
      }
    </style>
  </defs>
  <g id="_Шар_2-2" data-name="Шар 2">
    <path class="cls-1" d="m22.92,38.73v3.61H0v-3.61h11.94c.04-.37.08-.74.11-1.11h0c.07-.78.11-1.56.14-2.35v-.58c.02-.14.02-.28.02-.42v-.02c.02-2.42-.18-4.75-.55-6.94-.1-.58-.34-1.71-.34-1.71,0,0,0,0,0-.01-.22-.5-2.01-6.72-2.11-7.21,0,0,0,0,0,0-.24-1.25-.4-2.56-.48-3.92-.04-.57-.05-1.15-.05-1.73,0-1.12.06-2.22.18-3.28-.02-.07-.06-.13-.11-.19,0,0-.01-.01-.02-.02-.94-1.02-1.65-3.83.17-6.31.27-.37.6-.7.95-.99.41-.34.86-.62,1.33-.86C13.02.1,15.05-.13,15.25.06c.09.07.22.86.29,1.9.01.13.02.26.03.39.07,1.43,0,3.17-.49,4.13-1.09,2.12-3.61,2.96-5.01,3.12-.28.03-.49.26-.5.53-.11,2.24.1,4.84.63,7.67.23,1.26.52,2.56.88,3.89.08.22.91,2.73,1.18,3.85.09.37.17.75.25,1.14.12.58.22,1.19.32,1.79.32,2.12.48,4.37.44,6.69-.02,1.22-.09,2.41-.22,3.56h9.87Z"/>
  </g>
</svg>